<?xml version="1.0" standalone="no"?>
<!DOCTYPE svg PUBLIC "-//W3C//DTD SVG 20010904//EN"
 "http://www.w3.org/TR/2001/REC-SVG-20010904/DTD/svg10.dtd">
<svg version="1.0" xmlns="http://www.w3.org/2000/svg"
 width="43.000000pt" height="47.000000pt" viewBox="0 0 43.000000 47.000000"
 preserveAspectRatio="xMidYMid meet">

<g transform="translate(0.000000,47.000000) scale(0.100000,-0.100000)"
fill="#000000" stroke="none">
<path d="M210 345 c-5 -14 -10 -33 -10 -41 0 -29 -56 -74 -92 -74 l-33 0 3
-60 c4 -55 2 -60 -17 -60 -19 0 -21 6 -21 54 0 34 5 56 13 59 7 3 5 6 -5 6
-16 1 -18 -9 -18 -84 0 -84 0 -85 25 -85 13 0 35 5 49 11 20 9 29 9 41 -1 18
-15 174 -15 189 0 6 6 10 47 11 93 l0 82 -40 5 c-24 3 -39 10 -37 18 1 6 -3
12 -9 12 -7 0 -9 -8 -3 -22 4 -13 8 -59 8 -103 l1 -80 -34 -3 c-46 -5 -77 4
-102 29 -17 17 -23 19 -30 8 -5 -9 -8 7 -7 41 1 35 3 43 5 23 6 -44 23 -42 23
1 0 25 5 36 18 40 32 11 61 45 72 86 12 43 40 56 40 18 0 -19 2 -20 10 -8 6
10 5 21 -4 34 -19 30 -35 30 -46 1z m128 -122 c2 -9 -7 -13 -27 -13 -31 0 -42
14 -18 23 19 8 40 3 45 -10z m-8 -48 c0 -9 -9 -15 -25 -15 -16 0 -25 6 -25 15
0 9 9 15 25 15 16 0 25 -6 25 -15z m0 -39 c0 -16 -37 -28 -46 -15 -8 14 5 29
27 29 10 0 19 -6 19 -14z m-2 -48 c-6 -17 -40 -17 -45 0 -3 7 5 12 22 12 17 0
25 -5 23 -12z"/>
<path d="M293 332 c-8 -13 -7 -22 2 -35 11 -16 13 -16 29 1 15 18 15 20 -2 35
-16 15 -19 15 -29 -1z"/>
<path d="M132 298 c-9 -9 -8 -16 5 -30 15 -17 17 -17 29 0 9 12 9 21 2 29 -13
16 -21 16 -36 1z"/>
<path d="M234 192 c-6 -16 -26 -35 -45 -45 -29 -14 -31 -17 -11 -17 28 0 72
42 72 70 0 27 -4 25 -16 -8z"/>
</g>
</svg>
