<?xml version="1.0" standalone="no"?>
<!DOCTYPE svg PUBLIC "-//W3C//DTD SVG 20010904//EN"
 "http://www.w3.org/TR/2001/REC-SVG-20010904/DTD/svg10.dtd">
<svg version="1.0" xmlns="http://www.w3.org/2000/svg"
 width="35.000000pt" height="44.000000pt" viewBox="0 0 35.000000 44.000000"
 preserveAspectRatio="xMidYMid meet">

<g transform="translate(0.000000,44.000000) scale(0.100000,-0.100000)"
fill="#000000" stroke="none">
<path d="M95 381 c-57 -35 -70 -58 -70 -122 0 -55 2 -61 42 -101 23 -24 47
-56 52 -71 10 -27 13 -28 68 -25 57 3 58 3 61 35 2 21 10 34 23 38 12 4 19 15
19 30 0 13 8 28 17 33 15 9 15 14 -6 63 -32 75 -47 97 -84 119 -40 25 -83 25
-122 1z m132 -25 c34 -28 83 -138 65 -144 -7 -2 -12 -15 -12 -29 0 -16 -7 -27
-20 -30 -15 -4 -20 -14 -20 -39 l0 -34 -50 0 c-41 0 -51 4 -61 23 -6 12 -28
40 -49 62 -44 47 -55 84 -40 131 26 78 127 110 187 60z"/>
<path d="M136 344 c-3 -9 -13 -14 -20 -11 -17 7 -40 -18 -31 -33 3 -5 -1 -13
-9 -16 -21 -8 -21 -40 0 -48 8 -3 12 -11 9 -16 -9 -15 14 -40 31 -33 7 3 17
-2 20 -11 8 -21 44 -21 44 0 0 10 7 14 23 12 18 -2 23 2 25 25 2 15 9 27 18
27 8 0 14 9 14 20 0 11 -6 20 -14 20 -9 0 -16 12 -18 28 -2 22 -7 26 -25 24
-16 -2 -23 2 -23 12 0 21 -36 21 -44 0z m63 -29 c6 3 11 -2 11 -12 0 -11 5
-24 10 -29 12 -12 -9 -64 -26 -64 -6 0 -17 -7 -24 -15 -11 -13 -14 -13 -27 1
-9 8 -22 13 -29 10 -9 -4 -14 2 -14 17 0 13 -5 28 -12 35 -9 9 -9 12 0 12 7 0
12 12 12 26 0 19 4 25 15 20 8 -3 21 1 27 8 11 12 16 12 30 -1 9 -8 22 -12 27
-8z"/>
<path d="M132 288 c-28 -28 -1 -75 37 -63 25 8 34 31 21 56 -12 21 -40 25 -58
7z m48 -29 c0 -12 -7 -19 -19 -19 -22 0 -34 23 -19 38 15 15 38 3 38 -19z"/>
</g>
</svg>
