<?xml version="1.0" standalone="no"?>
<!DOCTYPE svg PUBLIC "-//W3C//DTD SVG 20010904//EN"
 "http://www.w3.org/TR/2001/REC-SVG-20010904/DTD/svg10.dtd">
<svg version="1.0" xmlns="http://www.w3.org/2000/svg"
 width="36.000000pt" height="44.000000pt" viewBox="0 0 36.000000 44.000000"
 preserveAspectRatio="xMidYMid meet">

<g transform="translate(0.000000,44.000000) scale(0.100000,-0.100000)"
fill="#000000" stroke="none">
<path d="M160 373 c0 -5 -32 -30 -70 -58 -39 -27 -70 -55 -70 -62 0 -25 51
-173 63 -180 15 -9 190 -4 201 7 9 9 47 135 50 165 1 13 -22 37 -74 77 -70 53
-100 68 -100 51z m-11 -116 c-16 -13 -31 -16 -53 -11 -52 10 -50 20 11 64 l58
41 3 -38 c3 -29 -1 -42 -19 -56z m114 45 c26 -19 45 -37 42 -42 -10 -17 -68
-20 -92 -5 -18 12 -23 25 -23 56 0 45 -3 45 73 -9z m-55 -65 c6 -7 9 -23 5
-35 -8 -34 -60 -31 -69 4 -10 39 39 62 64 31z m-92 -18 c23 -18 22 -48 -2 -83
-14 -20 -26 -36 -28 -36 -5 0 -46 120 -46 133 0 10 60 -1 76 -14z m204 17 c0
-16 -42 -136 -48 -136 -4 0 -17 16 -30 36 -20 31 -22 40 -12 64 7 16 22 31 33
33 32 6 57 8 57 3z m-91 -105 c33 -46 28 -51 -54 -51 l-76 0 23 40 c19 33 28
40 55 40 24 0 37 -7 52 -29z"/>
</g>
</svg>
