<?xml version="1.0" standalone="no"?>
<!DOCTYPE svg PUBLIC "-//W3C//DTD SVG 20010904//EN"
 "http://www.w3.org/TR/2001/REC-SVG-20010904/DTD/svg10.dtd">
<svg version="1.0" xmlns="http://www.w3.org/2000/svg"
 width="43.000000pt" height="48.000000pt" viewBox="0 0 43.000000 48.000000"
 preserveAspectRatio="xMidYMid meet">

<g transform="translate(0.000000,48.000000) scale(0.100000,-0.100000)"
fill="#000000" stroke="none">
<path d="M43 354 c-9 -25 11 -37 41 -23 37 17 41 7 10 -29 -25 -28 -54 -91
-54 -119 0 -7 10 -13 21 -13 19 0 20 4 15 35 -11 58 43 125 99 125 19 0 18
-10 0 -34 -18 -24 -20 -45 -3 -28 7 7 16 12 20 12 12 0 10 -44 -3 -57 -14 -14
-3 -33 17 -33 12 0 13 10 8 50 -4 28 -4 50 -2 50 12 0 58 -78 58 -98 0 -12
-10 -30 -22 -42 -18 -17 -19 -20 -5 -20 9 0 17 -4 17 -10 0 -5 -21 -10 -47
-10 -33 0 -44 -3 -36 -11 5 -5 30 -9 54 -7 40 3 44 5 42 28 -1 14 3 37 9 52 9
23 5 35 -26 86 -41 68 -42 72 -20 72 54 0 109 -73 98 -129 -6 -26 -4 -31 14
-31 24 0 36 25 18 39 -8 7 -16 24 -19 39 -3 15 -17 40 -31 55 -27 29 -19 45
14 27 23 -12 40 -6 40 15 0 20 -20 29 -33 16 -14 -14 -104 -15 -112 -1 -3 6
-15 10 -26 10 -10 0 -19 -4 -19 -10 0 -13 -97 -13 -105 0 -9 15 -25 12 -32 -6z"/>
<path d="M128 219 c-16 -27 -16 -32 -3 -45 8 -9 15 -31 15 -50 0 -19 5 -34 11
-34 6 0 8 9 4 20 -6 18 -2 20 32 21 39 1 37 3 -8 13 -36 8 -51 44 -33 79 20
37 3 34 -18 -4z"/>
</g>
</svg>
